<svg width="75" height="75" viewBox="0 0 75 75" fill="none" xmlns="http://www.w3.org/2000/svg">
<path d="M49.4062 26.6431V25.3594C49.4062 19.5792 40.6876 15.2188 29.125 15.2188C17.5624 15.2188 8.84375 19.5792 8.84375 25.3594V34.5781C8.84375 39.3926 14.8936 43.2184 23.5938 44.3638V45.6406C23.5938 51.4208 32.3124 55.7812 43.875 55.7812C55.4376 55.7812 64.1562 51.4208 64.1562 45.6406V36.4219C64.1562 31.6512 58.2977 27.8208 49.4062 26.6431ZM19.9062 39.8489C15.3914 38.5883 12.5312 36.5118 12.5312 34.5781V31.3354C14.4119 32.6675 16.9309 33.7415 19.9062 34.4629V39.8489ZM38.3438 34.4629C41.3191 33.7415 43.8381 32.6675 45.7188 31.3354V34.5781C45.7188 36.5118 42.8586 38.5883 38.3438 39.8489V34.4629ZM34.6562 50.9114C30.1414 49.6508 27.2812 47.5743 27.2812 45.6406V44.6796C27.8874 44.7026 28.5004 44.7188 29.125 44.7188C30.0192 44.7188 30.8927 44.6888 31.75 44.6381C32.7025 44.979 33.6726 45.2683 34.6562 45.5046V50.9114ZM34.6562 40.6279C32.825 40.8985 30.9762 41.0333 29.125 41.0312C27.2738 41.0333 25.425 40.8985 23.5938 40.6279V35.1451C25.4278 35.3841 27.2755 35.5026 29.125 35.5C30.9745 35.5026 32.8222 35.3841 34.6562 35.1451V40.6279ZM49.4062 51.6904C45.7384 52.2282 42.0116 52.2282 38.3438 51.6904V46.1937C40.1772 46.4402 42.0251 46.5634 43.875 46.5625C45.7245 46.5651 47.5722 46.4466 49.4062 46.2076V51.6904ZM60.4688 45.6406C60.4688 47.5743 57.6086 49.6508 53.0938 50.9114V45.5254C56.0691 44.804 58.5881 43.73 60.4688 42.3979V45.6406Z" fill="#23CEE6"/>
</svg>
