<svg width="845" height="873" viewBox="0 0 845 873" fill="none" xmlns="http://www.w3.org/2000/svg">
<g opacity="0.25" clip-path="url(#clip0_38_7559)">
<path style="mix-blend-mode:screen" d="M958.434 958.442C1176.38 740.501 1174.87 385.64 955.066 165.838C735.265 -53.9639 380.404 -55.4718 162.462 162.47C-55.4796 380.411 -53.9717 735.272 165.83 955.074C385.632 1174.88 740.493 1176.38 958.434 958.442Z" fill="url(#paint0_radial_38_7559)"/>
<path style="mix-blend-mode:screen" d="M906.629 876.34C1092.57 690.399 1091.29 387.645 903.76 200.119C716.235 12.5939 413.48 11.3093 227.539 197.25C41.5984 383.191 42.8829 685.946 230.408 873.471C417.934 1061 720.688 1062.28 906.629 876.34Z" fill="url(#paint1_radial_38_7559)"/>
<path fill-rule="evenodd" clip-rule="evenodd" d="M148.714 538.581C148.714 768.003 334.739 954.028 564.16 954.028C759.182 954.028 922.803 819.691 967.523 638.517C975.461 606.499 979.607 573.069 979.607 538.581C979.607 523.322 978.813 508.327 977.225 493.508C954.733 285.256 778.411 123.134 564.16 123.134C334.739 123.134 148.714 309.159 148.714 538.581Z" fill="#23E5C3"/>
<g opacity="0.2">
<path fill-rule="evenodd" clip-rule="evenodd" d="M669.125 819.426C663.921 830.629 660.392 840.419 651.484 849.593C641.781 859.648 634.284 861.5 621.759 865.205C614.438 867.322 612.938 869.88 603.677 869.703C597.59 869.615 589.211 868.116 583.301 869.439C570.158 872.438 563.102 884.081 548.372 884.875C534.347 885.669 525.35 880.994 513.178 877.289C501.711 873.761 488.392 868.821 477.808 864.764C466.253 860.354 455.845 857.267 443.849 853.474C430.971 849.328 424.355 840.772 408.214 845.271C407.155 851.269 408.655 860.795 401.334 863.794C396.306 865.822 387.838 860.53 382.458 858.413C368.345 853.033 355.643 850.034 342.236 844.389C335.709 841.654 331.034 841.831 324.507 836.979C318.244 832.304 311.453 828.776 304.837 824.366C292.665 816.251 280.757 807.431 268.673 799.227C245.387 783.439 230.48 761.74 216.367 738.807C208.958 726.723 204.724 713.492 200.049 699.644C194.316 682.708 196.257 677.857 207.547 664.009C227.922 672.477 235.949 659.863 230.304 638.076C225.364 619.024 223.247 593.709 227.481 573.775C228.275 570.247 230.921 567.689 231.539 562.749C232.156 557.192 231.098 553.135 232.509 547.578C234.89 538.405 236.478 532.23 236.39 522.439C236.39 512.561 235.067 501.799 237.537 492.273C239.124 486.275 241.241 483.717 241.594 477.19C241.947 470.487 240.712 464.665 242.653 458.226C247.504 441.467 262.852 436.704 276.7 431.941C286.138 428.677 290.901 425.414 296.987 431.941C303.426 438.821 301.838 448.259 301.926 457.168C302.015 474.015 291.165 488.833 281.816 502.417C277.67 508.503 270.349 514.325 271.407 522.704C272.025 527.291 277.67 527.996 277.317 532.583C276.876 538.14 270.878 539.904 267.879 543.785C243.887 575.186 289.137 602.706 310.659 619.377C322.919 628.903 341.442 633.666 346.117 649.455C351.145 666.302 339.502 680.327 333.416 694.704C326.977 709.787 321.508 736.161 330.77 750.274C334.739 756.271 342.501 759.888 348.499 762.711C357.319 766.944 360.671 772.237 368.521 777.97C381.223 787.232 396.923 790.231 412.712 789.26C422.679 788.643 430 784.585 437.851 779.117C443.937 774.883 451.963 767.209 459.108 765.18C464.224 763.769 468.017 764.827 473.221 764.21C480.277 763.328 481.689 760.417 487.863 758.829C498.536 756.095 506.21 763.593 514.589 767.915C521.734 771.531 530.113 776.647 538.757 774.442C547.049 772.237 556.751 766.944 564.778 765.268C584.007 761.299 615.055 759.888 630.403 772.942C638.165 779.558 640.899 788.731 647.779 795.699C654.659 802.667 667.184 804.079 669.301 819.515L669.125 819.426Z" fill="#625EAB"/>
<path fill-rule="evenodd" clip-rule="evenodd" d="M286.667 381.576C305.102 381.929 322.037 368.08 337.12 357.672C349.469 349.116 362.435 335.709 368.433 322.478C370.197 318.509 370.815 315.245 372.226 311.188C372.491 310.306 376.989 298.31 376.989 297.957C376.813 290.989 371.079 282.61 365.875 277.229C350.88 261.793 327.947 272.907 312.864 282.257C298.663 291.077 284.903 301.044 272.907 312.511C267.085 317.98 259.147 323.008 255.09 329.976C249.709 339.149 251.208 350.351 251.385 361.553C251.65 378.577 229.334 398.158 256.324 401.951C266.909 403.451 299.369 394.542 301.75 381.752H286.667V381.576Z" fill="#625EAB"/>
<path fill-rule="evenodd" clip-rule="evenodd" d="M618.848 920.069C623.434 925.185 628.815 921.656 634.019 920.069C639.047 918.481 643.369 917.599 649.014 917.599C660.04 917.599 670.007 917.599 680.503 915.041C690.47 912.571 699.908 911.16 709.435 908.778C713.227 907.808 716.844 905.691 720.637 904.897C723.018 904.368 725.664 905.25 728.046 904.809C729.192 904.633 729.281 903.221 730.075 903.045C732.015 902.604 733.867 902.869 735.808 902.516C745.334 900.84 754.331 898.017 762.799 895.459C766.856 894.224 770.472 894.136 774.177 891.843C778.058 889.461 783.35 886.903 786.79 884.257C800.374 874.202 815.193 865.822 827.63 853.385C839.273 841.654 851.269 830.981 863.529 820.044C866.352 817.486 868.645 814.222 871.644 811.841C874.907 809.283 877.995 808.048 881.082 804.961C887.433 798.522 892.372 791.465 897.488 784.144C907.455 769.767 920.157 758.036 928.007 742.335C931.8 734.75 935.152 727.34 939.65 720.107C942.473 715.521 945.207 709.876 947.236 704.848C948.735 701.055 951.822 696.557 952.881 692.94C954.469 687.56 954.38 682.356 955.88 677.063C956.497 674.77 958.085 673.182 958.614 670.977C959.32 668.155 957.82 664.803 958.35 661.98C958.879 659.422 960.467 658.276 961.084 655.894C961.79 653.071 960.29 649.72 960.819 646.897C961.349 644.339 962.936 643.193 963.554 640.811C964.348 637.547 962.495 633.755 963.289 630.491C963.907 628.109 965.494 626.963 966.023 624.405C966.553 621.759 966.023 618.23 965.935 615.496C965.935 608.969 968.14 604.029 968.493 597.855C968.758 592.21 969.728 584.36 968.493 578.891C967.964 576.333 966.288 575.186 965.759 572.805C964.965 569.541 966.553 566.189 965.494 562.838C958.702 561.073 960.819 575.451 960.908 578.979C960.908 585.506 958.261 589.034 958.438 595.297C958.614 603.059 955.351 604.118 950.764 609.851C948.823 612.321 944.237 617.084 943.178 620.347C942.561 622.464 942.561 625.904 942.032 628.021C941.326 630.667 940.709 632.431 940.797 635.607C940.885 641.781 941.238 644.868 936.475 648.838C933.123 651.572 927.478 655.012 923.332 655.894C917.599 657.217 912.571 657.129 906.75 658.187C904.103 658.717 903.133 660.304 900.663 660.922C897.488 661.716 894.048 659.687 890.961 661.275C888.05 662.774 884.257 668.596 883.463 671.418C881.876 676.799 882.934 681.297 885.404 685.972C886.286 687.648 886.903 689.412 887.962 691C889.109 692.852 891.49 694.704 892.46 696.557C897.223 705.289 890.343 719.402 888.491 726.811C887.785 729.634 883.463 738.366 885.845 741.012C888.226 743.658 902.516 741.365 905.162 739.777C906.75 742.953 903.751 749.039 902.78 752.479C901.722 756.448 899.781 762.093 897.4 765.974C892.813 773.472 884.61 780.44 876.848 784.497C871.732 787.232 868.645 788.643 867.675 781.763C867.234 778.676 868.116 776.912 866.528 774.089C865.381 772.06 863.353 771.796 862.559 769.238C861.677 766.503 863.441 762.975 862.735 760.241C862.206 758.212 860.795 756.889 860.354 755.125C858.942 749.215 861.236 742.512 860.265 736.514C858.237 724.429 849.24 718.961 838.743 716.403C828.07 713.757 817.486 710.846 807.431 706.347C796.14 701.32 783.88 699.467 772.06 703.172C762.446 706.171 754.772 711.993 745.951 716.667C741.894 718.873 738.189 719.755 734.22 721.342C729.633 723.106 724.87 724.871 720.196 726.194C711.904 728.575 702.29 729.986 694.616 734.573C687.383 738.895 677.681 744.54 672.565 751.597C667.713 758.3 662.95 772.06 666.567 780.44C669.213 786.791 678.827 792.259 683.326 797.64C691.088 806.725 688.971 812.723 683.326 822.073C681.209 825.513 677.592 830.011 676.622 833.716C675.299 838.655 676.093 846.064 676.358 851.092C676.622 855.943 678.122 859.119 680.768 863.088C683.238 866.793 688.971 869.174 691 872.967C692.852 876.407 691.088 878.083 689.677 880.729C689.236 881.435 688.001 881.699 687.648 882.493C686.678 884.257 687.295 885.933 686.589 887.697C684.12 893.431 679.092 892.549 673.976 893.96C668.684 895.371 663.921 894.754 658.805 892.813C655.718 891.578 654.747 890.696 651.395 890.167C647.691 889.638 645.927 891.578 643.192 892.196C637.018 893.519 633.49 889.197 627.315 888.932C622.376 888.668 619.289 890.873 615.496 894.666C612.321 897.841 607.822 903.133 608.351 907.985C608.881 912.924 615.143 915.923 618.583 920.51L618.848 920.069Z" fill="#625EAB"/>
<path fill-rule="evenodd" clip-rule="evenodd" d="M666.655 731.398C665.067 730.515 663.744 729.898 662.245 729.281C658.276 733.867 653.953 738.454 649.014 741.453C641.693 746.04 637.988 743.129 636.312 735.279C635.43 731.221 637.636 728.751 638.341 725.841C639.223 722.489 638.341 718.961 641.958 716.844C646.897 713.933 661.186 715.432 659.069 723.9L666.655 731.486V731.398Z" fill="#625EAB"/>
<path fill-rule="evenodd" clip-rule="evenodd" d="M908.161 406.802C909.308 408.743 910.807 409.449 912.836 409.096C913.894 404.862 913.806 397.453 913.012 393.131C912.571 390.749 910.983 389.602 910.631 386.692C910.366 384.222 910.631 382.105 910.101 379.635C909.396 376.548 906.838 371.609 906.22 368.433C905.162 363.582 904.985 360.936 903.045 356.525C901.281 352.468 900.222 347.176 898.37 342.501C896.694 338.267 894.754 335.18 892.372 331.387C887.697 323.713 883.904 316.304 879.141 308.63C870.762 295.046 861.412 281.551 848.799 270.966C844.477 267.35 839.625 264.616 835.127 261.44C833.539 260.382 832.393 258.618 830.893 257.647C829.394 256.677 827.012 256.236 825.689 255.266C821.72 252.355 810.43 240.977 805.314 243.711C808.842 253.061 815.016 262.411 819.515 271.584C824.719 282.168 834.421 281.727 842.183 289.225C854.267 300.956 834.068 305.896 827.1 310.482C820.22 314.981 820.132 321.42 820.132 328.829C820.132 335.709 819.603 341.266 817.574 347.705C816.78 350.351 815.369 353.703 814.928 356.525C815.016 358.29 815.104 359.965 815.193 361.73C815.016 363.053 814.311 364.111 813.076 364.64C811.488 371.785 814.487 376.107 816.957 382.281C819.338 388.279 820.838 394.101 825.777 398.688C830.717 403.274 836.185 401.775 842.801 401.863C847.035 401.863 848.975 400.893 852.856 399.922C855.414 399.305 859.031 397.806 860.971 397.453C863.97 396.835 866.881 397.012 869.88 396.306C872.967 395.6 873.232 393.836 877.465 394.895C881.788 396.041 885.933 400.981 890.52 402.039C896.871 403.451 904.015 400.452 910.366 402.304C910.542 403.01 910.631 403.715 908.249 406.891L908.161 406.802Z" fill="#625EAB"/>
<path fill-rule="evenodd" clip-rule="evenodd" d="M437.498 728.046C444.819 727.869 454.345 736.337 458.667 742.6C464.577 751.156 453.551 759.976 447.377 764.21C445.084 765.798 442.967 767.385 440.232 768.444C438.645 769.061 435.204 771.443 433.705 771.443C429.295 771.443 427.531 760.858 425.943 757.33C420.651 746.304 429.118 738.278 437.41 731.75V727.958L437.498 728.046Z" fill="#625EAB"/>
<path fill-rule="evenodd" clip-rule="evenodd" d="M401.775 744.981C402.304 745.422 402.833 745.775 403.362 746.216C405.832 740.836 401.951 735.19 401.51 730.163C397.894 729.986 390.396 736.69 390.396 740.306C390.396 746.481 399.481 746.834 403.715 746.922L401.863 745.069L401.775 744.981Z" fill="#625EAB"/>
<path fill-rule="evenodd" clip-rule="evenodd" d="M335.974 500.741C338.091 491.568 350.88 501.799 354.32 504.975C356.614 507.18 359.083 509.297 360.495 511.943C362.347 515.559 362.171 519.882 362.347 524.204C362.523 528.878 364.288 532.583 364.199 537.346C364.199 542.286 363.758 546.872 362.347 551.547C359.965 559.574 353.968 565.572 347.264 570.247C343.824 572.628 339.766 574.304 335.974 576.333C331.122 578.979 331.034 580.126 325.918 577.48C320.097 574.481 313.834 571.57 309.247 566.895C303.779 561.338 298.575 556.134 294.694 549.518C289.754 541.051 295.046 534.435 299.457 526.938C304.661 518.206 312.423 510.796 319.567 503.034C321.508 500.917 324.507 496.684 326.977 495.449C331.828 492.979 336.944 497.036 335.974 500.741Z" fill="#625EAB"/>
<path fill-rule="evenodd" clip-rule="evenodd" d="M337.914 466.87C338.443 466.782 338.884 466.606 339.414 466.517C339.59 464.048 344.794 456.286 341.354 453.992C338.796 452.316 334.739 457.52 333.239 459.285C330.681 462.372 328.476 467.84 331.74 471.192C334.915 474.456 341.09 471.633 339.766 466.87H337.914Z" fill="#625EAB"/>
<path fill-rule="evenodd" clip-rule="evenodd" d="M369.844 874.555C370.727 876.054 371.873 876.583 373.373 876.231C375.401 871.997 364.817 865.205 361.906 863.705C356.878 861.236 347.264 855.855 345.412 864.147C344.177 869.527 350.175 876.672 354.761 879.318C360.054 882.229 370.374 879.494 371.697 872.702L369.844 874.555Z" fill="#625EAB"/>
<path fill-rule="evenodd" clip-rule="evenodd" d="M213.898 519.529C214.427 519.617 214.956 519.705 215.485 519.882C217.69 527.379 214.25 534.965 213.898 542.109C213.457 549.519 213.898 557.192 213.898 564.69C213.898 572.187 213.898 579.685 213.898 587.27C213.898 590.358 214.074 593.357 213.457 596.267C213.192 597.59 212.222 598.561 211.957 600.413C211.604 602.794 211.957 605.529 211.957 607.999C211.957 611.615 212.222 615.32 211.516 618.848C211.516 619.201 210.193 622.552 210.017 622.993C209.311 625.11 210.017 625.375 208.605 627.227C205.165 632.431 198.638 635.783 192.993 632.872C188.406 630.491 184.878 626.874 180.027 624.846C173.147 621.935 170.06 618.142 166.796 611.703C164.062 606.411 163.003 600.501 161.239 594.68C160.71 593.092 159.563 592.739 159.21 591.151C158.858 589.475 159.21 587.535 158.858 585.859C158.593 584.624 157.534 583.566 157.358 581.713C157.358 580.39 157.534 579.156 157.534 577.832C157.446 576.774 156.917 576.068 155.947 575.627C155.241 572.628 155.77 569.718 155.594 566.63C155.329 562.661 153.918 559.486 153.742 555.34C153.565 551.283 151.801 548.284 151.801 544.05C151.801 540.257 151.801 536.552 151.801 532.76C151.801 525.262 151.889 517.765 151.801 510.179C151.801 506.298 152.948 504.269 153.653 500.829C154.447 497.125 154.624 493.067 155.418 489.451C155.947 486.893 158.328 483.982 158.858 481.601C159.74 477.808 160.357 475.955 162.562 472.604C166.62 466.429 169.001 463.871 175.705 460.96C182.056 458.138 190.7 459.285 196.433 463.783C198.374 465.283 201.813 468.458 202.519 470.751C202.96 472.251 202.519 474.456 202.872 476.044C203.313 478.072 204.371 479.307 204.283 482.13C204.195 489.363 202.519 499.594 204.195 506.651C204.989 510.091 207.37 514.148 208.517 517.853C210.017 522.351 209.928 526.144 213.721 519.705L213.898 519.529Z" fill="#625EAB"/>
<path fill-rule="evenodd" clip-rule="evenodd" d="M223.247 423.738C228.187 422.15 230.745 433.352 230.745 436.88C230.745 439.879 231.715 443.408 228.981 445.436C227.217 446.759 221.66 447.024 219.455 446.407C213.457 444.643 213.986 436.087 213.898 431.324C213.898 425.943 218.396 418.798 225.188 420.033L223.336 423.826L223.247 423.738Z" fill="#625EAB"/>
<path fill-rule="evenodd" clip-rule="evenodd" d="M847.035 431.235C851.798 431.147 845.359 417.74 839.978 418.446C835.392 419.063 831.334 426.56 830.276 430.441C825.601 447.289 851.092 448.524 850.739 433.088L846.946 431.235H847.035Z" fill="#625EAB"/>
<path fill-rule="evenodd" clip-rule="evenodd" d="M785.026 461.313C785.467 465.283 789.348 467.664 790.23 471.104C791.113 474.721 789.613 477.631 787.408 480.63C785.732 482.924 782.468 486.54 779.293 485.923C776.206 485.305 774.265 480.983 771.884 479.131C766.944 475.426 758.212 471.633 764.298 464.136C766.768 461.137 770.914 459.902 774.618 459.373C780.087 458.579 782.645 460.078 786.79 463.166L784.938 461.313H785.026Z" fill="#625EAB"/>
<path fill-rule="evenodd" clip-rule="evenodd" d="M384.839 224.57C386.604 221.13 387.838 219.631 384.839 216.985C382.37 214.78 378.93 214.603 375.842 215.574C371.432 216.897 366.757 222.365 363.67 225.894C361.994 227.834 359.083 232.156 358.907 234.361C358.642 237.096 359.966 239.477 361.73 241.947C364.729 246.093 369.492 249.533 373.02 253.149C378.4 258.706 381.752 255.442 386.162 250.326C389.602 246.269 392.425 241.594 395.6 237.272C396.394 236.214 399.217 230.833 399.393 229.686C399.658 227.393 398.511 224.659 397.012 222.63C393.836 218.396 387.75 213.016 382.899 211.428L384.751 224.57H384.839Z" fill="#625EAB"/>
<path fill-rule="evenodd" clip-rule="evenodd" d="M339.766 239.565C340.296 239.654 340.825 239.742 341.354 239.918C342.942 244.769 340.913 248.033 336.15 249.092C331.828 250.062 325.654 248.209 324.683 244.328C323.801 240.536 327.594 236.919 330.417 234.802C334.827 231.539 338.884 230.921 339.855 237.625V239.477L339.766 239.565Z" fill="#625EAB"/>
<path fill-rule="evenodd" clip-rule="evenodd" d="M367.992 720.548C367.463 722.401 369.668 727.605 370.286 729.545C371.079 732.191 372.402 735.808 373.637 738.454C374.96 741.365 375.842 744.54 376.46 747.892C377.077 751.332 378.753 754.066 379.371 757.242C380.694 764.298 372.402 769.238 366.052 767.738C360.407 766.415 355.291 761.917 350.704 758.653C347.617 756.448 346.823 756.889 345.059 753.096C343.559 749.832 342.854 746.481 341.795 743.129C340.737 739.689 339.855 737.837 339.855 733.867C339.855 730.163 339.414 726.193 340.296 722.577C344.618 704.848 364.023 716.226 368.08 728.222V720.725L367.992 720.548Z" fill="#625EAB"/>
<path fill-rule="evenodd" clip-rule="evenodd" d="M311.629 842.624C313.481 836.009 300.956 831.334 296.634 831.334C291.518 831.334 290.548 831.952 288.696 836.538C287.02 840.596 286.402 843.506 289.137 847.387C293.106 853.033 304.043 856.384 310.659 853.826C318.509 850.739 315.069 840.331 308.013 838.92L311.805 842.713L311.629 842.624Z" fill="#625EAB"/>
<path fill-rule="evenodd" clip-rule="evenodd" d="M392.337 707.406C394.454 706.965 397.453 703.966 398.07 701.849C398.599 700.173 397.894 698.321 398.423 696.557C398.776 695.145 399.658 694.263 399.923 692.411C400.187 690.559 399.393 688.53 399.746 686.766C400.187 684.737 401.422 683.149 401.775 681.121C402.392 677.504 400.981 673.447 401.598 669.83C402.216 666.479 405.479 662.598 403.186 658.981C401.246 655.982 397.188 656.335 394.101 656.688C390.837 657.041 388.103 658.276 384.751 659.069C380.87 659.951 376.019 662.068 372.667 664.273C367.375 667.802 361.73 671.859 360.23 678.298C358.907 684.296 359.877 694.44 361.2 699.997C362.347 704.76 364.64 711.287 369.58 714.198C374.431 717.108 385.633 715.432 390.308 713.227L392.16 707.582L392.337 707.406Z" fill="#625EAB"/>
<path fill-rule="evenodd" clip-rule="evenodd" d="M349.204 703.613C349.204 703.613 349.204 702.819 349.204 702.378C350.88 711.463 340.119 710.493 337.826 703.701C335.268 696.027 347.617 693.646 349.204 701.761V703.613Z" fill="#625EAB"/>
</g>
</g>
<defs>
<radialGradient id="paint0_radial_38_7559" cx="0" cy="0" r="1" gradientUnits="userSpaceOnUse" gradientTransform="translate(521.771 513.991) rotate(-135) scale(561.81 557.108)">
<stop stop-color="#279884"/>
<stop offset="0.16" stop-color="#25938C"/>
<stop offset="0.32" stop-color="#22877B"/>
<stop offset="0.49" stop-color="#1D6872"/>
<stop offset="0.65" stop-color="#165551"/>
<stop offset="0.82" stop-color="#0C2A30"/>
<stop offset="1"/>
</radialGradient>
<radialGradient id="paint1_radial_38_7559" cx="0" cy="0" r="1" gradientUnits="userSpaceOnUse" gradientTransform="translate(528.549 490.458) rotate(-135) scale(479.383 475.371)">
<stop stop-color="#23E5C3"/>
<stop offset="0.16" stop-color="#20939A"/>
<stop offset="0.31" stop-color="#1D8E80"/>
<stop offset="0.48" stop-color="#197A74"/>
<stop offset="0.64" stop-color="#135D5D"/>
<stop offset="0.8" stop-color="#0B3835"/>
<stop offset="0.96" stop-color="#020C0A"/>
<stop offset="1"/>
</radialGradient>
<clipPath id="clip0_38_7559">
<rect width="1121" height="1121" fill="white"/>
</clipPath>
</defs>
</svg>
