<svg width="755" height="1261" viewBox="0 0 755 1261" fill="none" xmlns="http://www.w3.org/2000/svg">
<path style="mix-blend-mode:screen" d="M946.789 946.795C1120.01 773.569 1118.82 491.516 944.112 316.812C769.407 142.108 487.355 140.91 314.129 314.135C140.903 487.361 142.102 769.414 316.806 944.118C491.51 1118.82 773.563 1120.02 946.789 946.795Z" fill="url(#paint0_radial_38_7529)"/>
<path style="mix-blend-mode:screen" d="M905.613 881.538C1053.4 733.748 1052.38 493.11 903.332 344.06C754.282 195.01 513.645 193.989 365.854 341.78C218.063 489.571 219.084 730.208 368.135 879.258C517.185 1028.31 757.822 1029.33 905.613 881.538Z" fill="url(#paint1_radial_38_7529)"/>
<path fill-rule="evenodd" clip-rule="evenodd" d="M303.202 613.078C303.202 795.429 451.059 943.286 633.409 943.286C788.418 943.286 918.468 836.512 954.012 692.51C960.322 667.061 963.617 640.49 963.617 613.078C963.617 600.95 962.986 589.031 961.724 577.253C943.847 411.729 803.701 282.871 633.409 282.871C451.059 282.871 303.202 430.728 303.202 613.078Z" fill="#23E5C3"/>
<g opacity="0.2">
<path fill-rule="evenodd" clip-rule="evenodd" d="M716.838 836.301C712.701 845.205 709.897 852.987 702.816 860.278C695.104 868.27 689.145 869.743 679.19 872.687C673.371 874.37 672.179 876.403 664.818 876.263C659.98 876.193 653.32 875.001 648.623 876.052C638.177 878.436 632.568 887.69 620.86 888.321C609.713 888.952 602.562 885.237 592.887 882.292C583.773 879.488 573.187 875.562 564.774 872.337C555.59 868.831 547.317 866.378 537.782 863.363C527.547 860.068 522.289 853.267 509.459 856.843C508.618 861.61 509.809 869.182 503.99 871.566C499.994 873.178 493.264 868.972 488.987 867.289C477.77 863.012 467.675 860.629 457.018 856.142C451.83 853.969 448.115 854.109 442.927 850.253C437.949 846.537 432.551 843.733 427.293 840.227C417.618 833.777 408.153 826.767 398.548 820.247C380.04 807.697 368.192 790.451 356.974 772.223C351.085 762.618 347.72 752.102 344.004 741.095C339.447 727.634 340.99 723.778 349.964 712.771C366.159 719.502 372.538 709.476 368.051 692.16C364.125 677.016 362.443 656.895 365.808 641.051C366.439 638.247 368.542 636.214 369.033 632.288C369.524 627.871 368.682 624.646 369.804 620.229C371.697 612.938 372.959 608.03 372.889 600.248C372.889 592.396 371.837 583.843 373.8 576.272C375.062 571.504 376.745 569.471 377.025 564.283C377.306 558.955 376.324 554.328 377.867 549.21C381.722 535.889 393.921 532.104 404.928 528.318C412.43 525.724 416.215 523.13 421.053 528.318C426.171 533.786 424.909 541.288 424.979 548.369C425.049 561.759 416.426 573.537 408.994 584.334C405.699 589.171 399.88 593.798 400.722 600.459C401.212 604.104 405.699 604.665 405.419 608.311C405.068 612.728 400.301 614.13 397.917 617.214C378.848 642.173 414.813 664.046 431.92 677.297C441.665 684.868 456.387 688.654 460.103 701.204C464.099 714.594 454.845 725.741 450.007 737.169C444.89 749.157 440.543 770.12 447.904 781.337C451.059 786.104 457.229 788.979 461.996 791.222C469.007 794.587 471.671 798.794 477.91 803.351C488.006 810.712 500.485 813.096 513.034 812.324C520.957 811.834 526.775 808.609 533.015 804.262C537.853 800.897 544.232 794.798 549.911 793.185C553.977 792.063 556.992 792.905 561.128 792.414C566.737 791.713 567.859 789.399 572.766 788.137C581.249 785.964 587.349 791.923 594.009 795.358C599.688 798.233 606.348 802.299 613.218 800.546C619.809 798.794 627.52 794.587 633.9 793.255C649.184 790.1 673.862 788.979 686.06 799.354C692.23 804.613 694.403 811.904 699.872 817.442C705.34 822.981 715.295 824.103 716.978 836.371L716.838 836.301Z" fill="#625EAB"/>
<path fill-rule="evenodd" clip-rule="evenodd" d="M412.85 488.286C427.503 488.567 440.964 477.56 452.952 469.287C462.767 462.487 473.073 451.83 477.84 441.314C479.242 438.159 479.733 435.565 480.855 432.34C481.065 431.639 484.641 422.104 484.641 421.824C484.501 416.285 479.944 409.625 475.807 405.349C463.889 393.08 445.661 401.913 433.672 409.345C422.385 416.356 411.448 424.278 401.914 433.392C397.286 437.738 390.977 441.735 387.752 447.273C383.475 454.564 384.667 463.468 384.807 472.372C385.018 485.903 367.28 501.466 388.733 504.481C397.146 505.673 422.946 498.592 424.839 488.426H412.85V488.286Z" fill="#625EAB"/>
<path fill-rule="evenodd" clip-rule="evenodd" d="M676.876 916.294C680.522 920.361 684.798 917.556 688.935 916.294C692.931 915.033 696.366 914.331 700.853 914.331C709.617 914.331 717.539 914.331 725.882 912.298C733.804 910.335 741.305 909.214 748.877 907.321C751.892 906.55 754.766 904.867 757.781 904.236C759.674 903.815 761.777 904.516 763.67 904.166C764.581 904.026 764.651 902.904 765.282 902.764C766.825 902.413 768.297 902.624 769.839 902.343C777.411 901.011 784.562 898.768 791.292 896.734C794.517 895.753 797.392 895.683 800.336 893.86C803.421 891.967 807.627 889.934 810.362 887.831C821.158 879.838 832.936 873.178 842.821 863.293C852.076 853.969 861.61 845.486 871.355 836.792C873.599 834.759 875.422 832.165 877.805 830.272C880.399 828.239 882.853 827.258 885.307 824.804C890.355 819.686 894.281 814.077 898.347 808.258C906.269 796.831 916.365 787.507 922.604 775.027C925.619 768.998 928.283 763.109 931.858 757.36C934.102 753.715 936.275 749.228 937.888 745.232C939.079 742.217 941.533 738.641 942.375 735.767C943.636 731.49 943.566 727.354 944.758 723.148C945.249 721.325 946.511 720.063 946.932 718.31C947.492 716.067 946.301 713.403 946.721 711.159C947.142 709.126 948.404 708.215 948.895 706.322C949.455 704.078 948.264 701.414 948.684 699.171C949.105 697.138 950.367 696.226 950.858 694.333C951.489 691.739 950.016 688.725 950.647 686.131C951.138 684.238 952.4 683.326 952.821 681.293C953.241 679.19 952.821 676.386 952.751 674.212C952.751 669.024 954.503 665.098 954.784 660.191C954.994 655.704 955.765 649.464 954.784 645.118C954.363 643.084 953.031 642.173 952.61 640.28C951.979 637.686 953.241 635.022 952.4 632.358C947.002 630.956 948.684 642.383 948.754 645.188C948.754 650.376 946.651 653.18 946.791 658.158C946.932 664.327 944.338 665.168 940.692 669.725C939.15 671.688 935.504 675.474 934.663 678.068C934.172 679.751 934.172 682.485 933.751 684.168C933.19 686.271 932.7 687.673 932.77 690.197C932.84 695.104 933.12 697.558 929.335 700.713C926.67 702.886 922.184 705.621 918.888 706.322C914.331 707.373 910.335 707.303 905.708 708.144C903.605 708.565 902.834 709.827 900.871 710.318C898.347 710.949 895.613 709.336 893.159 710.598C890.845 711.79 887.831 716.417 887.2 718.661C885.938 722.937 886.779 726.513 888.742 730.228C889.443 731.56 889.934 732.963 890.775 734.225C891.687 735.697 893.58 737.169 894.351 738.641C898.137 745.582 892.668 756.799 891.196 762.688C890.635 764.932 887.2 771.872 889.093 773.976C890.986 776.079 902.343 774.256 904.446 772.994C905.708 775.518 903.325 780.355 902.553 783.09C901.712 786.245 900.17 790.731 898.277 793.816C894.631 799.775 888.111 805.314 881.942 808.539C877.875 810.712 875.422 811.834 874.65 806.365C874.3 803.912 875.001 802.51 873.739 800.266C872.828 798.654 871.215 798.443 870.584 796.41C869.883 794.237 871.285 791.433 870.724 789.259C870.304 787.647 869.182 786.595 868.831 785.193C867.71 780.496 869.533 775.168 868.761 770.4C867.149 760.795 859.998 756.449 851.655 754.416C843.172 752.312 834.759 749.999 826.767 746.423C817.793 742.427 808.048 740.955 798.654 743.899C791.012 746.283 784.912 750.91 777.902 754.626C774.677 756.379 771.732 757.08 768.577 758.342C764.932 759.744 761.146 761.146 757.43 762.198C750.84 764.09 743.198 765.212 737.099 768.858C731.35 772.293 723.638 776.78 719.572 782.389C715.716 787.717 711.93 798.654 714.805 805.314C716.908 810.362 724.55 814.708 728.125 818.985C734.295 826.206 732.612 830.973 728.125 838.405C726.443 841.139 723.568 844.714 722.797 847.659C721.745 851.585 722.376 857.474 722.587 861.47C722.797 865.326 723.989 867.85 726.092 871.005C728.055 873.949 732.612 875.842 734.224 878.857C735.697 881.591 734.295 882.923 733.173 885.026C732.822 885.587 731.841 885.798 731.56 886.429C730.789 887.831 731.28 889.163 730.719 890.565C728.756 895.122 724.76 894.421 720.694 895.543C716.487 896.664 712.701 896.174 708.635 894.631C706.181 893.65 705.41 892.949 702.746 892.528C699.802 892.107 698.399 893.65 696.226 894.14C691.319 895.192 688.514 891.757 683.607 891.546C679.681 891.336 677.227 893.089 674.212 896.103C671.688 898.627 668.113 902.834 668.533 906.69C668.954 910.616 673.932 912.999 676.666 916.645L676.876 916.294Z" fill="#625EAB"/>
<path fill-rule="evenodd" clip-rule="evenodd" d="M714.875 766.334C713.613 765.633 712.561 765.142 711.369 764.651C708.215 768.297 704.779 771.942 700.853 774.326C695.034 777.972 692.09 775.658 690.758 769.419C690.057 766.194 691.809 764.231 692.37 761.917C693.071 759.253 692.37 756.449 695.245 754.766C699.171 752.452 710.528 753.644 708.846 760.375L714.875 766.404V766.334Z" fill="#625EAB"/>
<path fill-rule="evenodd" clip-rule="evenodd" d="M532.735 763.67C538.554 763.53 546.125 770.26 549.561 775.238C554.258 782.038 545.494 789.049 540.587 792.414C538.764 793.676 537.081 794.938 534.908 795.779C533.646 796.27 530.912 798.163 529.72 798.163C526.215 798.163 524.812 789.75 523.551 786.946C519.344 778.182 526.074 771.802 532.665 766.614V763.6L532.735 763.67Z" fill="#625EAB"/>
<path fill-rule="evenodd" clip-rule="evenodd" d="M504.341 777.13C504.762 777.481 505.182 777.761 505.603 778.112C507.566 773.835 504.481 769.348 504.131 765.352C501.256 765.212 495.297 770.54 495.297 773.415C495.297 778.322 502.518 778.603 505.883 778.673L504.411 777.201L504.341 777.13Z" fill="#625EAB"/>
<path fill-rule="evenodd" clip-rule="evenodd" d="M452.041 583.002C453.723 575.711 463.889 583.843 466.623 586.367C468.446 588.12 470.409 589.802 471.531 591.906C473.003 594.78 472.863 598.215 473.003 601.651C473.143 605.366 474.545 608.311 474.475 612.097C474.475 616.023 474.125 619.668 473.003 623.384C471.11 629.764 466.343 634.531 461.014 638.247C458.28 640.14 455.055 641.472 452.041 643.084C448.185 645.188 448.115 646.099 444.048 643.996C439.421 641.612 434.444 639.298 430.798 635.583C426.451 631.166 422.315 627.03 419.23 621.772C415.304 615.041 419.511 609.783 423.016 603.824C427.152 596.883 433.322 590.994 439.001 584.825C440.543 583.142 442.927 579.777 444.89 578.795C448.746 576.832 452.812 580.057 452.041 583.002Z" fill="#625EAB"/>
<path fill-rule="evenodd" clip-rule="evenodd" d="M453.583 556.081C454.004 556.011 454.354 555.87 454.775 555.8C454.915 553.837 459.051 547.668 456.317 545.845C454.284 544.513 451.059 548.649 449.867 550.051C447.834 552.505 446.082 556.852 448.676 559.516C451.199 562.11 456.107 559.866 455.055 556.081H453.583Z" fill="#625EAB"/>
<path fill-rule="evenodd" clip-rule="evenodd" d="M519.274 883.133C521.307 880.68 527.477 879.628 530.491 880.259C534.277 881.1 537.222 882.432 540.937 883.063C548.369 884.325 557.763 888.111 564.143 892.037C573.467 897.786 589.803 913.981 574.028 922.113C567.648 925.408 559.586 924.848 552.225 924.918C548.439 924.918 546.406 923.375 542.48 923.445C538.343 923.515 534.978 922.113 531.262 921.202C524.602 919.589 518.293 917.626 511.843 914.892C506.094 912.509 501.677 908.372 497.26 904.025C491.722 898.627 490.95 891.406 496.559 885.727C499.854 882.362 502.799 883.133 507.356 883.133C511.843 883.133 516.33 883.133 519.274 883.133Z" fill="#625EAB"/>
<path fill-rule="evenodd" clip-rule="evenodd" d="M478.962 880.119C479.663 881.311 480.575 881.731 481.766 881.451C483.379 878.086 474.966 872.687 472.652 871.495C468.656 869.532 461.014 865.256 459.542 871.846C458.561 876.123 463.328 881.801 466.974 883.905C471.18 886.218 479.383 884.045 480.434 878.646L478.962 880.119Z" fill="#625EAB"/>
<path fill-rule="evenodd" clip-rule="evenodd" d="M355.011 597.935C355.432 598.005 355.853 598.075 356.273 598.215C358.026 604.175 355.292 610.204 355.011 615.883C354.661 621.772 355.011 627.871 355.011 633.83C355.011 639.789 355.011 645.748 355.011 651.778C355.011 654.232 355.152 656.615 354.661 658.929C354.451 659.98 353.679 660.752 353.469 662.224C353.189 664.117 353.469 666.29 353.469 668.253C353.469 671.127 353.679 674.072 353.118 676.876C353.118 677.157 352.067 679.821 351.927 680.171C351.366 681.854 351.927 682.064 350.805 683.537C348.071 687.673 342.883 690.337 338.396 688.023C334.75 686.131 331.946 683.256 328.09 681.644C322.622 679.33 320.168 676.315 317.574 671.198C315.401 666.991 314.559 662.294 313.157 657.667C312.736 656.405 311.825 656.124 311.545 654.862C311.264 653.53 311.545 651.988 311.264 650.656C311.054 649.674 310.213 648.833 310.072 647.361C310.072 646.309 310.213 645.328 310.213 644.276C310.142 643.435 309.722 642.874 308.951 642.524C308.39 640.14 308.81 637.826 308.67 635.372C308.46 632.218 307.338 629.694 307.198 626.399C307.058 623.174 305.656 620.79 305.656 617.425C305.656 614.41 305.656 611.466 305.656 608.451C305.656 602.492 305.726 596.533 305.656 590.504C305.656 587.419 306.567 585.806 307.128 583.072C307.759 580.128 307.899 576.903 308.53 574.028C308.951 571.995 310.844 569.681 311.264 567.789C311.965 564.774 312.456 563.302 314.209 560.638C317.434 555.73 319.327 553.697 324.655 551.383C329.702 549.14 336.573 550.051 341.13 553.627C342.672 554.819 345.407 557.343 345.968 559.165C346.318 560.357 345.968 562.11 346.248 563.372C346.598 564.984 347.44 565.966 347.37 568.209C347.3 573.958 345.968 582.091 347.3 587.699C347.931 590.433 349.823 593.658 350.735 596.603C351.927 600.178 351.857 603.193 354.871 598.075L355.011 597.935Z" fill="#625EAB"/>
<path fill-rule="evenodd" clip-rule="evenodd" d="M362.443 521.798C366.369 520.536 368.402 529.439 368.402 532.244C368.402 534.627 369.173 537.432 367 539.044C365.598 540.096 361.181 540.306 359.428 539.815C354.661 538.413 355.082 531.613 355.011 527.827C355.011 523.55 358.587 517.872 363.985 518.853L362.513 521.868L362.443 521.798Z" fill="#625EAB"/>
<path fill-rule="evenodd" clip-rule="evenodd" d="M490.88 363.494C492.283 360.76 493.264 359.568 490.88 357.465C488.917 355.712 486.183 355.572 483.729 356.343C480.224 357.395 476.508 361.742 474.054 364.546C472.722 366.088 470.409 369.524 470.269 371.276C470.058 373.45 471.11 375.343 472.512 377.306C474.896 380.601 478.682 383.335 481.486 386.209C485.763 390.626 488.427 388.032 491.932 383.966C494.666 380.741 496.91 377.025 499.434 373.59C500.064 372.749 502.308 368.472 502.448 367.561C502.658 365.738 501.747 363.565 500.555 361.952C498.031 358.587 493.194 354.31 489.338 353.048L490.81 363.494H490.88Z" fill="#625EAB"/>
<path fill-rule="evenodd" clip-rule="evenodd" d="M455.055 375.413C455.476 375.483 455.897 375.553 456.317 375.693C457.579 379.549 455.967 382.143 452.181 382.984C448.746 383.755 443.838 382.283 443.067 379.198C442.366 376.184 445.38 373.309 447.624 371.627C451.129 369.033 454.354 368.542 455.125 373.87V375.343L455.055 375.413Z" fill="#625EAB"/>
<path fill-rule="evenodd" clip-rule="evenodd" d="M477.49 757.71C477.069 759.183 478.822 763.319 479.313 764.861C479.944 766.965 480.995 769.839 481.977 771.942C483.028 774.256 483.729 776.78 484.22 779.444C484.711 782.178 486.043 784.351 486.534 786.875C487.585 792.484 480.995 796.41 475.947 795.218C471.46 794.167 467.394 790.591 463.749 787.997C461.295 786.244 460.664 786.595 459.262 783.58C458.07 780.986 457.509 778.322 456.668 775.658C455.826 772.924 455.125 771.452 455.125 768.297C455.125 765.352 454.775 762.197 455.476 759.323C458.911 745.231 474.335 754.275 477.56 763.81V757.851L477.49 757.71Z" fill="#625EAB"/>
<path fill-rule="evenodd" clip-rule="evenodd" d="M432.691 854.74C434.163 849.482 424.208 845.766 420.772 845.766C416.706 845.766 415.935 846.257 414.463 849.902C413.131 853.127 412.64 855.441 414.813 858.525C417.968 863.012 426.662 865.677 431.92 863.643C438.159 861.19 435.425 852.917 429.816 851.795L432.831 854.81L432.691 854.74Z" fill="#625EAB"/>
<path fill-rule="evenodd" clip-rule="evenodd" d="M496.84 747.264C498.522 746.914 500.906 744.53 501.397 742.848C501.817 741.516 501.256 740.043 501.677 738.641C501.957 737.519 502.658 736.818 502.869 735.346C503.079 733.874 502.448 732.261 502.729 730.859C503.079 729.247 504.061 727.985 504.341 726.372C504.832 723.498 503.71 720.273 504.201 717.399C504.692 714.734 507.286 711.65 505.463 708.775C503.92 706.392 500.695 706.672 498.242 706.952C495.648 707.233 493.474 708.214 490.81 708.845C487.725 709.546 483.87 711.229 481.205 712.982C476.999 715.786 472.512 719.011 471.32 724.129C470.269 728.896 471.04 736.959 472.091 741.375C473.003 745.161 474.826 750.349 478.752 752.663C482.608 754.976 491.511 753.644 495.227 751.892L496.699 747.405L496.84 747.264Z" fill="#625EAB"/>
<path fill-rule="evenodd" clip-rule="evenodd" d="M462.557 744.25C462.557 744.25 462.557 743.619 462.557 743.268C463.889 750.489 455.336 749.718 453.513 744.32C451.48 738.221 461.295 736.328 462.557 742.778V744.25Z" fill="#625EAB"/>
</g>
<defs>
<radialGradient id="paint0_radial_38_7529" cx="0" cy="0" r="1" gradientUnits="userSpaceOnUse" gradientTransform="translate(599.717 593.534) rotate(-135) scale(446.541 442.804)">
<stop stop-color="#279884"/>
<stop offset="0.16" stop-color="#25938C"/>
<stop offset="0.32" stop-color="#22877B"/>
<stop offset="0.49" stop-color="#1D6872"/>
<stop offset="0.65" stop-color="#165551"/>
<stop offset="0.82" stop-color="#0C2A30"/>
<stop offset="1"/>
</radialGradient>
<radialGradient id="paint1_radial_38_7529" cx="0" cy="0" r="1" gradientUnits="userSpaceOnUse" gradientTransform="translate(605.104 574.829) rotate(-135) scale(381.026 377.838)">
<stop stop-color="#23E5C3"/>
<stop offset="0.16" stop-color="#20939A"/>
<stop offset="0.31" stop-color="#1D8E80"/>
<stop offset="0.48" stop-color="#197A74"/>
<stop offset="0.64" stop-color="#135D5D"/>
<stop offset="0.8" stop-color="#0B3835"/>
<stop offset="0.96" stop-color="#020C0A"/>
<stop offset="1"/>
</radialGradient>
</defs>
</svg>
