<svg width="33" height="34" viewBox="0 0 33 34" fill="none" xmlns="http://www.w3.org/2000/svg">
<path d="M32.5 17C32.5 25.8366 25.3366 33 16.5 33C7.66344 33 0.5 25.8366 0.5 17C0.5 8.16344 7.66344 1 16.5 1C25.3366 1 32.5 8.16344 32.5 17Z" stroke="#23CEE6"/>
<path d="M11.95 11C11.1686 11 10.3949 11.1552 9.67303 11.4567C8.95115 11.7583 8.29522 12.2002 7.74271 12.7574C7.19021 13.3145 6.75193 13.9759 6.45292 14.7039C6.1539 15.4319 6 16.2121 6 17C6 17.7879 6.1539 18.5681 6.45292 19.2961C6.75193 20.0241 7.19021 20.6855 7.74271 21.2426C8.29522 21.7998 8.95115 22.2417 9.67303 22.5433C10.3949 22.8448 11.1686 23 11.95 23C12.7314 23 13.5051 22.8448 14.227 22.5433C14.9489 22.2417 15.6048 21.7998 16.1573 21.2426C16.7098 20.6855 17.1481 20.0241 17.4471 19.2961C17.7461 18.5681 17.9 17.7879 17.9 17C17.9 16.2121 17.7461 15.4319 17.4471 14.7039C17.1481 13.9759 16.7098 13.3145 16.1573 12.7574C15.6048 12.2002 14.9489 11.7583 14.227 11.4567C13.5051 11.1552 12.7314 11 11.95 11ZM21.4 11.7059C21.0323 11.7059 20.6682 11.8428 20.3285 12.1089C19.9888 12.3749 19.6801 12.7649 19.4201 13.2565C19.1601 13.7481 18.9539 14.3317 18.8131 14.974C18.6724 15.6163 18.6 16.3048 18.6 17C18.6 17.6952 18.6724 18.3837 18.8131 19.026C18.9539 19.6683 19.1601 20.2519 19.4201 20.7435C19.6801 21.2351 19.9888 21.6251 20.3285 21.8911C20.6682 22.1572 21.0323 22.2941 21.4 22.2941C21.7677 22.2941 22.1318 22.1572 22.4715 21.8911C22.8112 21.6251 23.1199 21.2351 23.3799 20.7435C23.6399 20.2519 23.8461 19.6683 23.9869 19.026C24.1276 18.3837 24.2 17.6952 24.2 17C24.2 16.3048 24.1276 15.6163 23.9869 14.974C23.8461 14.3317 23.6399 13.7481 23.3799 13.2565C23.1199 12.7649 22.8112 12.3749 22.4715 12.1089C22.1318 11.8428 21.7677 11.7059 21.4 11.7059ZM25.95 12.4118C25.6715 12.4118 25.4045 12.8952 25.2075 13.7556C25.0106 14.6161 24.9 15.7831 24.9 17C24.9 18.2169 25.0106 19.3839 25.2075 20.2444C25.4045 21.1048 25.6715 21.5882 25.95 21.5882C26.2285 21.5882 26.4955 21.1048 26.6925 20.2444C26.8894 19.3839 27 18.2169 27 17C27 15.7831 26.8894 14.6161 26.6925 13.7556C26.4955 12.8952 26.2285 12.4118 25.95 12.4118Z" fill="#23CEE6"/>
</svg>
