<svg width="76" height="76" viewBox="0 0 76 76" fill="none" xmlns="http://www.w3.org/2000/svg">
<path d="M39.5834 3.95837C39.5834 3.32848 39.3332 2.72439 38.8878 2.279C38.4424 1.8336 37.8383 1.58337 37.2084 1.58337C36.5785 1.58337 35.9744 1.8336 35.529 2.279C35.0836 2.72439 34.8334 3.32848 34.8334 3.95837V31.4767L20.4155 17.0525C20.1966 16.8256 19.9346 16.6445 19.6449 16.5199C19.3552 16.3953 19.0436 16.3297 18.7282 16.3268C18.4129 16.3239 18.1001 16.3838 17.8082 16.5031C17.5162 16.6224 17.251 16.7986 17.0279 17.0215C16.8048 17.2444 16.6283 17.5095 16.5087 17.8013C16.3892 18.0931 16.329 18.4058 16.3315 18.7212C16.3341 19.0365 16.3995 19.3482 16.5238 19.638C16.6482 19.9279 16.829 20.19 17.0557 20.4092L31.4767 34.8334H3.95837C3.32848 34.8334 2.72439 35.0836 2.279 35.529C1.8336 35.9744 1.58337 36.5785 1.58337 37.2084C1.58337 37.8383 1.8336 38.4424 2.279 38.8878C2.72439 39.3332 3.32848 39.5834 3.95837 39.5834H31.4767L17.0557 54.0012C16.6229 54.4489 16.3832 55.0488 16.3883 55.6715C16.3934 56.2942 16.6429 56.89 17.0831 57.3306C17.5232 57.7711 18.1188 58.0212 18.7415 58.0269C19.3642 58.0326 19.9642 57.7935 20.4124 57.361L34.8334 42.9432V70.4584C34.8334 71.0883 35.0836 71.6924 35.529 72.1378C35.9744 72.5832 36.5785 72.8334 37.2084 72.8334C37.8383 72.8334 38.4424 72.5832 38.8878 72.1378C39.3332 71.6924 39.5834 71.0883 39.5834 70.4584V42.94L54.0012 57.361C54.4489 57.7939 55.0488 58.0336 55.6715 58.0284C56.2942 58.0233 56.89 57.7738 57.3306 57.3337C57.7711 56.8936 58.0212 56.298 58.0269 55.6753C58.0326 55.0526 57.7935 54.4525 57.361 54.0044L42.9432 39.5834H70.4584C71.0883 39.5834 71.6924 39.3332 72.1378 38.8878C72.5832 38.4424 72.8334 37.8383 72.8334 37.2084C72.8334 36.5785 72.5832 35.9744 72.1378 35.529C71.6924 35.0836 71.0883 34.8334 70.4584 34.8334H42.94L57.361 20.4155C57.588 20.1966 57.769 19.9346 57.8936 19.6449C58.0182 19.3552 58.0839 19.0436 58.0868 18.7282C58.0897 18.4129 58.0297 18.1001 57.9105 17.8082C57.7912 17.5162 57.615 17.251 57.3921 17.0279C57.1692 16.8048 56.9041 16.6283 56.6123 16.5087C56.3204 16.3892 56.0077 16.329 55.6924 16.3315C55.377 16.3341 55.0654 16.3995 54.7755 16.5238C54.4857 16.6482 54.2236 16.829 54.0044 17.0557L39.5834 31.4735V3.95837Z" fill="#23CEE6"/>
</svg>
