<svg width="32" height="34" viewBox="0 0 32 34" fill="none" xmlns="http://www.w3.org/2000/svg">
<g clip-path="url(#clip0_38_6752)">
<path d="M31.5 17C31.5 25.8512 24.546 33 16 33C7.45398 33 0.5 25.8512 0.5 17C0.5 8.14883 7.45398 1 16 1C24.546 1 31.5 8.14883 31.5 17Z" stroke="#23CEE6"/>
<path d="M13.0669 24.5625C12.5485 24.5625 12.6367 24.3607 12.4579 23.8516L10.9336 18.6785L22.6669 11.5" fill="#214013"/>
<path d="M13.0664 24.562C13.4664 24.562 13.6431 24.3734 13.8664 24.1495L15.9997 22.0103L13.3387 20.3555" fill="#062C11"/>
<path d="M13.3386 20.3555L19.7866 25.2682C20.5225 25.6869 21.0534 25.47 21.2368 24.5638L23.8614 11.8089C24.1301 10.6979 23.4508 10.1938 22.7468 10.5234L7.33477 16.6519C6.28277 17.0871 6.28904 17.6924 7.14304 17.962L11.0981 19.2351L20.2545 13.2779C20.6868 13.0076 21.0836 13.1528 20.758 13.4509" fill="#23CEE6"/>
</g>
<defs>
<clipPath id="clip0_38_6752">
<rect width="32" height="33" fill="white" transform="translate(0 0.5)"/>
</clipPath>
</defs>
</svg>
