<svg width="806" height="806" viewBox="0 0 806 806" fill="none" xmlns="http://www.w3.org/2000/svg">
<path opacity="0.2" fill-rule="evenodd" clip-rule="evenodd" d="M477.182 641.048C473.046 649.952 470.242 657.734 463.161 665.025C455.449 673.018 449.49 674.49 439.534 677.434C433.715 679.117 432.524 681.15 425.162 681.01C420.325 680.94 413.665 679.748 408.967 680.8C398.521 683.183 392.913 692.437 381.205 693.068C370.057 693.699 362.907 689.984 353.232 687.039C344.118 684.235 333.531 680.309 325.118 677.084C315.934 673.578 307.662 671.125 298.127 668.11C287.891 664.815 282.633 658.014 269.803 661.59C268.962 666.357 270.154 673.929 264.335 676.313C260.339 677.925 253.608 673.719 249.332 672.036C238.115 667.759 228.019 665.376 217.363 660.889C212.175 658.716 208.459 658.856 203.271 655C198.293 651.284 192.895 648.48 187.637 644.974C177.962 638.525 168.498 631.514 158.893 624.994C140.384 612.444 128.536 595.198 117.319 576.97C111.43 567.365 108.065 556.849 104.349 545.842C99.7919 532.381 101.334 528.525 110.308 517.518C126.503 524.249 132.883 514.223 128.396 496.907C124.47 481.763 122.787 461.643 126.152 445.798C126.783 442.994 128.887 440.961 129.377 437.035C129.868 432.618 129.027 429.393 130.149 424.976C132.042 417.685 133.303 412.777 133.233 404.995C133.233 397.143 132.182 388.59 134.145 381.019C135.407 376.251 137.089 374.218 137.37 369.03C137.65 363.702 136.669 359.075 138.211 353.957C142.067 340.636 154.266 336.851 165.273 333.065C172.774 330.471 176.56 327.877 181.397 333.065C186.515 338.533 185.253 346.035 185.323 353.116C185.394 366.506 176.77 378.284 169.339 389.081C166.044 393.918 160.225 398.546 161.066 405.206C161.557 408.851 166.044 409.412 165.763 413.058C165.413 417.475 160.646 418.877 158.262 421.962C139.193 446.92 175.158 468.794 192.264 482.044C202.009 489.616 216.732 493.401 220.447 505.951C224.444 519.341 215.189 530.488 210.352 541.916C205.234 553.904 200.887 574.867 208.249 586.084C211.404 590.851 217.573 593.726 222.34 595.969C229.351 599.334 232.015 603.541 238.255 608.098C248.35 615.459 260.83 617.843 273.379 617.072C281.301 616.581 287.12 613.356 293.36 609.009C298.197 605.644 304.577 599.545 310.256 597.932C314.322 596.81 317.336 597.652 321.473 597.161C327.081 596.46 328.203 594.146 333.111 592.884C341.594 590.711 347.693 596.67 354.353 600.105C360.032 602.98 366.692 607.046 373.563 605.293C380.153 603.541 387.865 599.334 394.245 598.002C409.528 594.847 434.206 593.726 446.405 604.102C452.574 609.36 454.748 616.651 460.216 622.189C465.685 627.728 475.64 628.85 477.322 641.119L477.182 641.048Z" fill="#0D363B"/>
<path opacity="0.2" fill-rule="evenodd" clip-rule="evenodd" d="M173.195 293.033C187.847 293.314 201.308 282.307 213.297 274.034C223.112 267.234 233.417 256.577 238.185 246.061C239.587 242.906 240.078 240.312 241.199 237.087C241.41 236.386 244.985 226.851 244.985 226.571C244.845 221.033 240.288 214.372 236.152 210.096C224.233 197.827 206.005 206.66 194.017 214.092C182.73 221.103 171.793 229.025 162.258 238.139C157.631 242.486 151.321 246.482 148.096 252.02C143.82 259.311 145.011 268.215 145.152 277.119C145.362 290.65 127.625 306.214 149.078 309.228C157.491 310.42 183.29 303.339 185.183 293.173H173.195V293.033Z" fill="#0D363B"/>
<path opacity="0.2" fill-rule="evenodd" clip-rule="evenodd" d="M437.221 721.042C440.866 725.108 445.143 722.304 449.279 721.042C453.275 719.78 456.711 719.079 461.198 719.079C469.961 719.079 477.883 719.079 486.226 717.045C494.148 715.082 501.65 713.961 509.222 712.068C512.236 711.297 515.111 709.614 518.125 708.983C520.018 708.562 522.121 709.263 524.014 708.913C524.926 708.773 524.996 707.651 525.627 707.511C527.169 707.16 528.641 707.371 530.184 707.09C537.755 705.758 544.906 703.515 551.637 701.482C554.862 700.5 557.736 700.43 560.681 698.607C563.765 696.714 567.972 694.681 570.706 692.578C581.503 684.586 593.281 677.925 603.166 668.04C612.42 658.716 621.955 650.233 631.7 641.539C633.943 639.506 635.766 636.912 638.15 635.019C640.744 632.986 643.197 632.005 645.651 629.551C650.699 624.433 654.625 618.824 658.691 613.005C666.614 601.578 676.709 592.254 682.949 579.774C685.963 573.745 688.627 567.856 692.203 562.107C694.446 558.462 696.62 553.975 698.232 549.979C699.424 546.964 701.878 543.388 702.719 540.514C703.981 536.237 703.911 532.101 705.103 527.895C705.593 526.072 706.855 524.81 707.276 523.057C707.837 520.814 706.645 518.15 707.066 515.906C707.486 513.873 708.748 512.962 709.239 511.069C709.8 508.825 708.608 506.161 709.029 503.918C709.449 501.885 710.711 500.973 711.202 499.08C711.833 496.486 710.361 493.472 710.992 490.878C711.483 488.985 712.744 488.073 713.165 486.04C713.586 483.937 713.165 481.133 713.095 478.959C713.095 473.771 714.848 469.845 715.128 464.938C715.338 460.451 716.11 454.211 715.128 449.865C714.707 447.831 713.375 446.92 712.955 445.027C712.324 442.433 713.586 439.769 712.744 437.105C707.346 435.703 709.029 447.13 709.099 449.935C709.099 455.123 706.996 457.927 707.136 462.905C707.276 469.074 704.682 469.915 701.036 474.472C699.494 476.435 695.848 480.221 695.007 482.815C694.516 484.498 694.516 487.232 694.096 488.915C693.535 491.018 693.044 492.42 693.114 494.944C693.184 499.851 693.465 502.305 689.679 505.46C687.015 507.633 682.528 510.368 679.233 511.069C674.676 512.12 670.68 512.05 666.053 512.892C663.949 513.312 663.178 514.574 661.215 515.065C658.691 515.696 655.957 514.083 653.503 515.345C651.19 516.537 648.175 521.164 647.544 523.408C646.282 527.684 647.124 531.26 649.087 534.975C649.788 536.308 650.278 537.71 651.12 538.972C652.031 540.444 653.924 541.916 654.695 543.388C658.481 550.329 653.013 561.546 651.54 567.435C650.979 569.679 647.544 576.62 649.437 578.723C651.33 580.826 662.688 579.003 664.791 577.741C666.053 580.265 663.669 585.103 662.898 587.837C662.057 590.992 660.514 595.479 658.621 598.563C654.976 604.522 648.456 610.061 642.286 613.286C638.22 615.459 635.766 616.581 634.995 611.113C634.644 608.659 635.345 607.257 634.083 605.013C633.172 603.401 631.56 603.19 630.929 601.157C630.228 598.984 631.63 596.18 631.069 594.006C630.648 592.394 629.526 591.342 629.176 589.94C628.054 585.243 629.877 579.915 629.106 575.147C627.493 565.542 620.342 561.196 612 559.163C603.516 557.059 595.104 554.746 587.111 551.17C578.137 547.174 568.392 545.702 558.998 548.647C551.356 551.03 545.257 555.657 538.246 559.373C535.021 561.126 532.077 561.827 528.922 563.089C525.276 564.491 521.49 565.893 517.775 566.945C511.185 568.838 503.543 569.959 497.443 573.605C491.695 577.04 483.983 581.527 479.916 587.136C476.061 592.464 472.275 603.401 475.149 610.061C477.252 615.109 484.894 619.455 488.47 623.732C494.639 630.953 492.957 635.72 488.47 643.152C486.787 645.886 483.913 649.462 483.141 652.406C482.09 656.332 482.721 662.221 482.931 666.217C483.141 670.073 484.333 672.597 486.436 675.752C488.399 678.696 492.956 680.589 494.569 683.604C496.041 686.338 494.639 687.67 493.517 689.773C493.167 690.334 492.185 690.545 491.905 691.176C491.134 692.578 491.624 693.91 491.064 695.312C489.101 699.869 485.104 699.168 481.038 700.29C476.832 701.411 473.046 700.921 468.98 699.378C466.526 698.397 465.755 697.696 463.091 697.275C460.146 696.854 458.744 698.397 456.571 698.888C451.663 699.939 448.859 696.504 443.951 696.294C440.025 696.083 437.571 697.836 434.557 700.851C432.033 703.374 428.457 707.581 428.878 711.437C429.299 715.363 434.276 717.747 437.01 721.392L437.221 721.042Z" fill="#0D363B"/>
<path opacity="0.2" fill-rule="evenodd" clip-rule="evenodd" d="M293.079 568.417C298.898 568.277 306.47 575.007 309.905 579.985C314.602 586.785 305.839 593.796 300.931 597.161C299.108 598.423 297.426 599.685 295.252 600.526C293.991 601.017 291.256 602.91 290.064 602.91C286.559 602.91 285.157 594.497 283.895 591.693C279.689 582.929 286.419 576.549 293.009 571.361V568.347L293.079 568.417Z" fill="#0D363B"/>
<path opacity="0.2" fill-rule="evenodd" clip-rule="evenodd" d="M115.356 402.682C115.777 402.752 116.197 402.822 116.618 402.962C118.371 408.922 115.636 414.951 115.356 420.63C115.005 426.519 115.356 432.618 115.356 438.577C115.356 444.536 115.356 450.496 115.356 456.525C115.356 458.979 115.496 461.362 115.005 463.676C114.795 464.727 114.024 465.499 113.814 466.971C113.533 468.864 113.814 471.037 113.814 473C113.814 475.875 114.024 478.819 113.463 481.623C113.463 481.904 112.411 484.568 112.271 484.918C111.71 486.601 112.271 486.811 111.149 488.284C108.415 492.42 103.227 495.084 98.7403 492.771C95.0947 490.878 92.2904 488.003 88.4345 486.391C82.9661 484.077 80.5123 481.063 77.9183 475.945C75.745 471.738 74.9037 467.041 73.5015 462.414C73.0809 461.152 72.1695 460.871 71.8891 459.61C71.6086 458.277 71.8891 456.735 71.6086 455.403C71.3983 454.422 70.557 453.58 70.4168 452.108C70.4168 451.056 70.557 450.075 70.557 449.023C70.4869 448.182 70.0663 447.621 69.2951 447.271C68.7342 444.887 69.1549 442.573 69.0146 440.12C68.8043 436.965 67.6826 434.441 67.5424 431.146C67.4022 427.921 66 425.537 66 422.172C66 419.157 66 416.213 66 413.198C66 407.239 66.0701 401.28 66 395.251C66 392.166 66.9114 390.553 67.4723 387.819C68.1032 384.875 68.2435 381.65 68.8744 378.775C69.2951 376.742 71.188 374.429 71.6086 372.536C72.3097 369.521 72.8005 368.049 74.5532 365.385C77.7781 360.477 79.671 358.444 84.9992 356.13C90.047 353.887 96.9175 354.798 101.475 358.374C103.017 359.566 105.751 362.09 106.312 363.912C106.663 365.104 106.312 366.857 106.592 368.119C106.943 369.731 107.784 370.713 107.714 372.956C107.644 378.705 106.312 386.838 107.644 392.446C108.275 395.18 110.168 398.405 111.079 401.35C112.271 404.925 112.201 407.94 115.216 402.822L115.356 402.682Z" fill="#0D363B"/>
<path opacity="0.2" fill-rule="evenodd" clip-rule="evenodd" d="M237.834 562.458C237.414 563.93 239.166 568.066 239.657 569.608C240.288 571.712 241.34 574.586 242.321 576.689C243.373 579.003 244.074 581.527 244.565 584.191C245.055 586.925 246.387 589.098 246.878 591.622C247.93 597.231 241.34 601.157 236.292 599.965C231.805 598.914 227.739 595.338 224.093 592.744C221.639 590.991 221.008 591.342 219.606 588.327C218.414 585.733 217.853 583.069 217.012 580.405C216.171 577.671 215.47 576.199 215.47 573.044C215.47 570.099 215.119 566.944 215.82 564.07C219.256 549.978 234.679 559.022 237.904 568.557V562.598L237.834 562.458Z" fill="#0D363B"/>
<path opacity="0.2" fill-rule="evenodd" clip-rule="evenodd" d="M257.184 552.012C258.867 551.661 261.25 549.277 261.741 547.595C262.162 546.263 261.601 544.79 262.021 543.388C262.302 542.267 263.003 541.565 263.213 540.093C263.424 538.621 262.793 537.008 263.073 535.606C263.424 533.994 264.405 532.732 264.686 531.119C265.176 528.245 264.055 525.02 264.545 522.146C265.036 519.482 267.63 516.397 265.807 513.522C264.265 511.139 261.04 511.419 258.586 511.7C255.992 511.98 253.819 512.962 251.155 513.592C248.07 514.294 244.214 515.976 241.55 517.729C237.343 520.533 232.857 523.758 231.665 528.876C230.613 533.643 231.384 541.706 232.436 546.122C233.347 549.908 235.17 555.096 239.096 557.41C242.952 559.723 251.856 558.391 255.572 556.639L257.044 552.152L257.184 552.012Z" fill="#0D363B"/>
<g filter="url(#filter0_d_55_715)">
<rect x="34" y="34" width="738" height="738" rx="369" stroke="url(#paint0_linear_55_715)" stroke-width="6" shape-rendering="crispEdges"/>
</g>
<defs>
<filter id="filter0_d_55_715" x="0" y="0" width="806" height="806" filterUnits="userSpaceOnUse" color-interpolation-filters="sRGB">
<feFlood flood-opacity="0" result="BackgroundImageFix"/>
<feColorMatrix in="SourceAlpha" type="matrix" values="0 0 0 0 0 0 0 0 0 0 0 0 0 0 0 0 0 0 127 0" result="hardAlpha"/>
<feMorphology radius="2" operator="dilate" in="SourceAlpha" result="effect1_dropShadow_55_715"/>
<feOffset/>
<feGaussianBlur stdDeviation="14.5"/>
<feComposite in2="hardAlpha" operator="out"/>
<feColorMatrix type="matrix" values="0 0 0 0 0.137255 0 0 0 0 0.807843 0 0 0 0 0.898039 0 0 0 0.25 0"/>
<feBlend mode="normal" in2="BackgroundImageFix" result="effect1_dropShadow_55_715"/>
<feBlend mode="normal" in="SourceGraphic" in2="effect1_dropShadow_55_715" result="shape"/>
</filter>
<linearGradient id="paint0_linear_55_715" x1="42.7012" y1="403" x2="473.207" y2="403" gradientUnits="userSpaceOnUse">
<stop stop-color="#1992B8"/>
<stop offset="1" stop-color="#23E5C3"/>
</linearGradient>
</defs>
</svg>
