<svg width="75" height="76" viewBox="0 0 75 76" fill="none" xmlns="http://www.w3.org/2000/svg">
<path d="M36.9648 3.26514C34.103 3.2937 31.1985 3.67969 28.3064 4.45459C9.79689 9.41382 -1.18725 28.4389 3.77227 46.9481C8.61944 65.0379 26.901 75.9371 45.0062 71.7924C43.4125 71.4072 41.8741 70.8213 40.4279 70.0488C31.7498 70.652 23.3824 67.4584 17.3241 61.623L30.3943 57.2229L13.3515 56.9251C11.8821 54.7747 10.6977 52.4427 9.82794 49.9876L30.0522 49.2772L8.34464 43.8989C7.98306 41.2572 7.97419 38.5791 8.31827 35.9351L32.4384 42.8506L9.88419 29.5096C10.9108 26.6842 12.35 24.0263 14.1549 21.6224L36.7714 37.4949L19.4766 16.1423C22.1978 13.9708 25.3333 12.2407 28.8043 11.09L42.7921 34.2653L36.1904 9.61421C36.8221 9.56822 37.4517 9.54214 38.0794 9.53599C41.179 9.50494 44.22 9.95494 47.111 10.8305L51.4135 33.2068L53.802 13.7757C56.9962 15.6683 59.8456 18.1453 62.1756 21.1061L59.5925 36.082L65.2116 25.8062C66.2361 27.7736 67.0422 29.8472 67.6154 31.99C68.9001 36.7844 68.9591 41.6187 67.9846 46.16C68.6379 47.9643 69.0201 49.8555 69.1187 51.7718C72.133 44.8324 72.9109 36.8641 70.8006 28.9884C66.6157 13.3712 52.4177 3.11104 36.9648 3.26514ZM49.9263 35.9936C50.4042 36.2771 50.8448 36.6191 51.238 37.0116C53.0272 38.8006 53.592 41.3911 53.1798 43.9477C52.7676 46.5038 51.4151 49.106 49.2504 51.2709C47.0854 53.4359 44.4834 54.7879 41.9271 55.2004C39.3709 55.6126 36.7806 55.0475 34.9915 53.2584C33.9869 52.2538 33.3684 50.9966 33.092 49.6349C32.8945 50.6769 32.7952 51.7352 32.7954 52.7958C32.7954 62.0936 40.3036 69.6016 49.6015 69.6016C58.8993 69.6016 66.4077 62.0936 66.4077 52.7958C66.4077 43.6068 59.0736 36.1663 49.9267 35.9936H49.9263ZM45.7749 37.6749C45.4409 37.6822 45.0948 37.7142 44.7378 37.7716C42.8339 38.0789 40.7014 39.1474 38.9142 40.9346C37.1271 42.7217 36.0585 44.8543 35.7516 46.7583C35.4442 48.6621 35.8614 50.2578 36.9267 51.3227C37.9916 52.3879 39.5873 52.8051 41.4911 52.4982C43.3951 52.1911 45.5278 51.1228 47.315 49.3354C49.1022 47.5482 50.1705 45.4154 50.4776 43.5114C50.7847 41.6074 50.3678 40.0119 49.3025 38.947C48.5038 38.148 47.4065 37.7139 46.1045 37.6761C45.9961 37.6729 45.8862 37.6724 45.7749 37.6746V37.6749ZM43.7523 40.6559C44.4276 40.6441 45.0428 40.8524 45.4891 41.2986C46.5872 42.3968 46.245 44.5198 44.7242 46.0403C43.2037 47.5611 41.0804 47.9036 39.982 46.8054C38.8838 45.7074 39.2262 43.5842 40.7467 42.0634C41.6498 41.1605 42.7652 40.673 43.7521 40.6557L43.7523 40.6559Z" fill="#23CEE6"/>
</svg>
